<mxfile host="app.diagrams.net" modified="2023-01-19T20:11:04.519Z" agent="5.0 (Macintosh; Intel Mac OS X 10_15_7) AppleWebKit/537.36 (KHTML, like Gecko) Chrome/108.0.0.0 Safari/537.36" etag="FrTSTb4fOx5NoMyD8lus" version="20.8.5" type="github">
  <diagram name="Page-1" id="c7558073-3199-34d8-9f00-42111426c3f3">
    <mxGraphModel dx="734" dy="780" grid="1" gridSize="10" guides="1" tooltips="1" connect="1" arrows="1" fold="1" page="1" pageScale="1" pageWidth="640" pageHeight="360" background="#ffffff" math="1" shadow="0">
      <root>
        <mxCell id="0" />
        <mxCell id="1" parent="0" />
        <mxCell id="MH4xG3TaYEz_sSmX0UcA-96" value="" style="group" parent="1" vertex="1" connectable="0">
          <mxGeometry x="20" y="-350" width="620" height="330" as="geometry" />
        </mxCell>
        <mxCell id="MH4xG3TaYEz_sSmX0UcA-1" value="Corpus" style="text;html=1;align=center;verticalAlign=middle;resizable=0;points=[];autosize=1;strokeColor=none;fillColor=none;" parent="MH4xG3TaYEz_sSmX0UcA-96" vertex="1">
          <mxGeometry x="80" width="60" height="30" as="geometry" />
        </mxCell>
        <mxCell id="MH4xG3TaYEz_sSmX0UcA-13" value="Corpus" style="text;html=1;align=center;verticalAlign=middle;resizable=0;points=[];autosize=1;strokeColor=none;fillColor=none;" parent="MH4xG3TaYEz_sSmX0UcA-96" vertex="1">
          <mxGeometry x="80" y="170" width="60" height="30" as="geometry" />
        </mxCell>
        <mxCell id="MH4xG3TaYEz_sSmX0UcA-17" value="" style="group" parent="MH4xG3TaYEz_sSmX0UcA-96" vertex="1" connectable="0">
          <mxGeometry y="30" width="230" height="130" as="geometry" />
        </mxCell>
        <mxCell id="U3BUplj-x7eQxfh4RS7O-116" value="" style="rounded=1;whiteSpace=wrap;html=1;strokeWidth=2;fontFamily=Times New Roman;fontSize=15;fillColor=#f5f5f5;fontColor=#333333;strokeColor=#666666;" parent="MH4xG3TaYEz_sSmX0UcA-17" vertex="1">
          <mxGeometry width="230" height="130" as="geometry" />
        </mxCell>
        <mxCell id="MH4xG3TaYEz_sSmX0UcA-16" value="" style="endArrow=none;html=1;rounded=0;entryX=0.5;entryY=0;entryDx=0;entryDy=0;exitX=0.5;exitY=1;exitDx=0;exitDy=0;" parent="MH4xG3TaYEz_sSmX0UcA-17" source="U3BUplj-x7eQxfh4RS7O-116" target="U3BUplj-x7eQxfh4RS7O-116" edge="1">
          <mxGeometry width="50" height="50" relative="1" as="geometry">
            <mxPoint x="85" y="90" as="sourcePoint" />
            <mxPoint x="135" y="40" as="targetPoint" />
          </mxGeometry>
        </mxCell>
        <mxCell id="MH4xG3TaYEz_sSmX0UcA-21" value="Relevant Set" style="text;html=1;align=center;verticalAlign=middle;resizable=0;points=[];autosize=1;strokeColor=none;fillColor=none;" parent="MH4xG3TaYEz_sSmX0UcA-17" vertex="1">
          <mxGeometry x="20" width="90" height="30" as="geometry" />
        </mxCell>
        <mxCell id="MH4xG3TaYEz_sSmX0UcA-34" value="" style="group" parent="MH4xG3TaYEz_sSmX0UcA-17" vertex="1" connectable="0">
          <mxGeometry x="10" y="30" width="100" height="80" as="geometry" />
        </mxCell>
        <mxCell id="MH4xG3TaYEz_sSmX0UcA-22" value="" style="ellipse;whiteSpace=wrap;html=1;" parent="MH4xG3TaYEz_sSmX0UcA-34" vertex="1">
          <mxGeometry width="100" height="80" as="geometry" />
        </mxCell>
        <mxCell id="MH4xG3TaYEz_sSmX0UcA-30" value="" style="rounded=1;whiteSpace=wrap;html=1;strokeWidth=2;fontFamily=Times New Roman;fontSize=15;fillColor=#1ba1e2;strokeColor=#006EAF;fontColor=#ffffff;" parent="MH4xG3TaYEz_sSmX0UcA-34" vertex="1">
          <mxGeometry x="30" y="10.249999999999993" width="21.27" height="19.12" as="geometry" />
        </mxCell>
        <mxCell id="MH4xG3TaYEz_sSmX0UcA-31" value="" style="rounded=1;whiteSpace=wrap;html=1;strokeWidth=2;fontFamily=Times New Roman;fontSize=15;fillColor=#1ba1e2;strokeColor=#006EAF;fontColor=#ffffff;" parent="MH4xG3TaYEz_sSmX0UcA-34" vertex="1">
          <mxGeometry x="60" y="20" width="21.27" height="19.12" as="geometry" />
        </mxCell>
        <mxCell id="MH4xG3TaYEz_sSmX0UcA-32" value="" style="rounded=1;whiteSpace=wrap;html=1;strokeWidth=2;fontFamily=Times New Roman;fontSize=15;fillColor=#1ba1e2;strokeColor=#006EAF;fontColor=#ffffff;direction=south;" parent="MH4xG3TaYEz_sSmX0UcA-34" vertex="1">
          <mxGeometry x="9.805" y="29.364999999999995" width="19.12" height="21.27" as="geometry" />
        </mxCell>
        <mxCell id="MH4xG3TaYEz_sSmX0UcA-33" value="" style="rounded=1;whiteSpace=wrap;html=1;strokeWidth=2;fontFamily=Times New Roman;fontSize=15;fillColor=#1ba1e2;strokeColor=#006EAF;fontColor=#ffffff;" parent="MH4xG3TaYEz_sSmX0UcA-34" vertex="1">
          <mxGeometry x="39.37000000000001" y="50.64" width="21.27" height="19.12" as="geometry" />
        </mxCell>
        <mxCell id="MH4xG3TaYEz_sSmX0UcA-43" value="" style="group" parent="MH4xG3TaYEz_sSmX0UcA-17" vertex="1" connectable="0">
          <mxGeometry x="130" y="20" width="90" height="100" as="geometry" />
        </mxCell>
        <mxCell id="MH4xG3TaYEz_sSmX0UcA-25" value="Irrelevant Set" style="text;html=1;align=center;verticalAlign=middle;resizable=0;points=[];autosize=1;strokeColor=none;fillColor=none;" parent="MH4xG3TaYEz_sSmX0UcA-43" vertex="1">
          <mxGeometry width="90" height="30" as="geometry" />
        </mxCell>
        <mxCell id="MH4xG3TaYEz_sSmX0UcA-26" value="" style="ellipse;whiteSpace=wrap;html=1;" parent="MH4xG3TaYEz_sSmX0UcA-43" vertex="1">
          <mxGeometry y="30" width="80" height="70" as="geometry" />
        </mxCell>
        <mxCell id="U3BUplj-x7eQxfh4RS7O-121" value="" style="rounded=1;whiteSpace=wrap;html=1;strokeWidth=2;fontFamily=Times New Roman;fontSize=15;fillColor=#fad9d5;strokeColor=#ae4132;fontColor=#000000;" parent="MH4xG3TaYEz_sSmX0UcA-43" vertex="1">
          <mxGeometry x="50" y="59.56" width="21.27" height="19.12" as="geometry" />
        </mxCell>
        <mxCell id="MH4xG3TaYEz_sSmX0UcA-29" value="" style="rounded=1;whiteSpace=wrap;html=1;strokeWidth=2;fontFamily=Times New Roman;fontSize=15;fillColor=#fad9d5;strokeColor=#ae4132;fontColor=#000000;" parent="MH4xG3TaYEz_sSmX0UcA-43" vertex="1">
          <mxGeometry x="18.72999999999999" y="40.44" width="21.27" height="19.12" as="geometry" />
        </mxCell>
        <mxCell id="MH4xG3TaYEz_sSmX0UcA-18" value="" style="group" parent="MH4xG3TaYEz_sSmX0UcA-96" vertex="1" connectable="0">
          <mxGeometry y="200" width="230" height="130" as="geometry" />
        </mxCell>
        <mxCell id="MH4xG3TaYEz_sSmX0UcA-19" value="" style="rounded=1;whiteSpace=wrap;html=1;strokeWidth=2;fontFamily=Times New Roman;fontSize=15;fillColor=#f5f5f5;fontColor=#333333;strokeColor=#666666;" parent="MH4xG3TaYEz_sSmX0UcA-18" vertex="1">
          <mxGeometry width="230" height="130" as="geometry" />
        </mxCell>
        <mxCell id="MH4xG3TaYEz_sSmX0UcA-20" value="" style="endArrow=none;html=1;rounded=0;entryX=0.5;entryY=0;entryDx=0;entryDy=0;exitX=0.5;exitY=1;exitDx=0;exitDy=0;" parent="MH4xG3TaYEz_sSmX0UcA-18" source="MH4xG3TaYEz_sSmX0UcA-19" target="MH4xG3TaYEz_sSmX0UcA-19" edge="1">
          <mxGeometry width="50" height="50" relative="1" as="geometry">
            <mxPoint x="85" y="90" as="sourcePoint" />
            <mxPoint x="135" y="40" as="targetPoint" />
          </mxGeometry>
        </mxCell>
        <mxCell id="MH4xG3TaYEz_sSmX0UcA-23" value="Relevant Set" style="text;html=1;align=center;verticalAlign=middle;resizable=0;points=[];autosize=1;strokeColor=none;fillColor=none;" parent="MH4xG3TaYEz_sSmX0UcA-18" vertex="1">
          <mxGeometry x="20" width="90" height="30" as="geometry" />
        </mxCell>
        <mxCell id="MH4xG3TaYEz_sSmX0UcA-35" value="" style="group" parent="MH4xG3TaYEz_sSmX0UcA-18" vertex="1" connectable="0">
          <mxGeometry x="10" y="30" width="100" height="80" as="geometry" />
        </mxCell>
        <mxCell id="MH4xG3TaYEz_sSmX0UcA-36" value="" style="ellipse;whiteSpace=wrap;html=1;" parent="MH4xG3TaYEz_sSmX0UcA-35" vertex="1">
          <mxGeometry width="100" height="80" as="geometry" />
        </mxCell>
        <mxCell id="MH4xG3TaYEz_sSmX0UcA-37" value="" style="rounded=1;whiteSpace=wrap;html=1;strokeWidth=2;fontFamily=Times New Roman;fontSize=15;fillColor=#1ba1e2;strokeColor=#006EAF;fontColor=#ffffff;" parent="MH4xG3TaYEz_sSmX0UcA-35" vertex="1">
          <mxGeometry x="30" y="10.249999999999993" width="21.27" height="19.12" as="geometry" />
        </mxCell>
        <mxCell id="MH4xG3TaYEz_sSmX0UcA-38" value="" style="rounded=1;whiteSpace=wrap;html=1;strokeWidth=2;fontFamily=Times New Roman;fontSize=15;fillColor=#1ba1e2;strokeColor=#006EAF;fontColor=#ffffff;" parent="MH4xG3TaYEz_sSmX0UcA-35" vertex="1">
          <mxGeometry x="60" y="20" width="21.27" height="19.12" as="geometry" />
        </mxCell>
        <mxCell id="MH4xG3TaYEz_sSmX0UcA-39" value="" style="rounded=1;whiteSpace=wrap;html=1;strokeWidth=2;fontFamily=Times New Roman;fontSize=15;fillColor=#1ba1e2;strokeColor=#006EAF;fontColor=#ffffff;direction=south;" parent="MH4xG3TaYEz_sSmX0UcA-35" vertex="1">
          <mxGeometry x="9.805" y="29.364999999999995" width="19.12" height="21.27" as="geometry" />
        </mxCell>
        <mxCell id="MH4xG3TaYEz_sSmX0UcA-40" value="" style="rounded=1;whiteSpace=wrap;html=1;strokeWidth=2;fontFamily=Times New Roman;fontSize=15;fillColor=#e51400;strokeColor=#B20000;fontColor=#ffffff;" parent="MH4xG3TaYEz_sSmX0UcA-35" vertex="1">
          <mxGeometry x="39.37000000000001" y="50.64" width="21.27" height="19.12" as="geometry" />
        </mxCell>
        <mxCell id="MH4xG3TaYEz_sSmX0UcA-44" value="" style="group" parent="MH4xG3TaYEz_sSmX0UcA-18" vertex="1" connectable="0">
          <mxGeometry x="130" y="15" width="90" height="100" as="geometry" />
        </mxCell>
        <mxCell id="MH4xG3TaYEz_sSmX0UcA-45" value="Irrelevant Set" style="text;html=1;align=center;verticalAlign=middle;resizable=0;points=[];autosize=1;strokeColor=none;fillColor=none;" parent="MH4xG3TaYEz_sSmX0UcA-44" vertex="1">
          <mxGeometry width="90" height="30" as="geometry" />
        </mxCell>
        <mxCell id="MH4xG3TaYEz_sSmX0UcA-46" value="" style="ellipse;whiteSpace=wrap;html=1;" parent="MH4xG3TaYEz_sSmX0UcA-44" vertex="1">
          <mxGeometry y="30" width="80" height="70" as="geometry" />
        </mxCell>
        <mxCell id="MH4xG3TaYEz_sSmX0UcA-47" value="" style="rounded=1;whiteSpace=wrap;html=1;strokeWidth=2;fontFamily=Times New Roman;fontSize=15;fillColor=#fad9d5;strokeColor=#ae4132;fontColor=#000000;" parent="MH4xG3TaYEz_sSmX0UcA-44" vertex="1">
          <mxGeometry x="50" y="59.56" width="21.27" height="19.12" as="geometry" />
        </mxCell>
        <mxCell id="MH4xG3TaYEz_sSmX0UcA-48" value="" style="rounded=1;whiteSpace=wrap;html=1;strokeWidth=2;fontFamily=Times New Roman;fontSize=15;fillColor=#fad9d5;strokeColor=#ae4132;fontColor=#000000;" parent="MH4xG3TaYEz_sSmX0UcA-44" vertex="1">
          <mxGeometry x="18.72999999999999" y="40.44" width="21.27" height="19.12" as="geometry" />
        </mxCell>
        <mxCell id="MH4xG3TaYEz_sSmX0UcA-50" value="" style="endArrow=classic;html=1;rounded=0;" parent="MH4xG3TaYEz_sSmX0UcA-96" edge="1">
          <mxGeometry width="50" height="50" relative="1" as="geometry">
            <mxPoint x="240" y="100" as="sourcePoint" />
            <mxPoint x="300" y="100" as="targetPoint" />
          </mxGeometry>
        </mxCell>
        <mxCell id="MH4xG3TaYEz_sSmX0UcA-62" value="" style="whiteSpace=wrap;html=1;aspect=fixed;" parent="MH4xG3TaYEz_sSmX0UcA-96" vertex="1">
          <mxGeometry x="480" y="70" width="80" height="80" as="geometry" />
        </mxCell>
        <mxCell id="MH4xG3TaYEz_sSmX0UcA-63" value="" style="group" parent="MH4xG3TaYEz_sSmX0UcA-96" vertex="1" connectable="0">
          <mxGeometry x="290" y="30" width="130" height="125" as="geometry" />
        </mxCell>
        <mxCell id="MH4xG3TaYEz_sSmX0UcA-56" value="" style="ellipse;whiteSpace=wrap;html=1;aspect=fixed;" parent="MH4xG3TaYEz_sSmX0UcA-63" vertex="1">
          <mxGeometry x="20" y="35" width="90" height="90" as="geometry" />
        </mxCell>
        <mxCell id="MH4xG3TaYEz_sSmX0UcA-57" value="Retrieved Passages" style="text;html=1;align=center;verticalAlign=middle;resizable=0;points=[];autosize=1;strokeColor=none;fillColor=none;" parent="MH4xG3TaYEz_sSmX0UcA-63" vertex="1">
          <mxGeometry width="130" height="30" as="geometry" />
        </mxCell>
        <mxCell id="MH4xG3TaYEz_sSmX0UcA-58" value="" style="rounded=1;whiteSpace=wrap;html=1;strokeWidth=2;fontFamily=Times New Roman;fontSize=15;fillColor=#fad9d5;strokeColor=#ae4132;fontColor=#000000;" parent="MH4xG3TaYEz_sSmX0UcA-63" vertex="1">
          <mxGeometry x="45" y="90" width="21.27" height="19.12" as="geometry" />
        </mxCell>
        <mxCell id="MH4xG3TaYEz_sSmX0UcA-59" value="" style="rounded=1;whiteSpace=wrap;html=1;strokeWidth=2;fontFamily=Times New Roman;fontSize=15;fillColor=#1ba1e2;strokeColor=#006EAF;fontColor=#ffffff;" parent="MH4xG3TaYEz_sSmX0UcA-63" vertex="1">
          <mxGeometry x="35" y="60" width="21.27" height="19.12" as="geometry" />
        </mxCell>
        <mxCell id="MH4xG3TaYEz_sSmX0UcA-60" value="" style="rounded=1;whiteSpace=wrap;html=1;strokeWidth=2;fontFamily=Times New Roman;fontSize=15;fillColor=#1ba1e2;strokeColor=#006EAF;fontColor=#ffffff;" parent="MH4xG3TaYEz_sSmX0UcA-63" vertex="1">
          <mxGeometry x="66.26999999999998" y="50" width="21.27" height="19.12" as="geometry" />
        </mxCell>
        <mxCell id="MH4xG3TaYEz_sSmX0UcA-61" value="" style="rounded=1;whiteSpace=wrap;html=1;strokeWidth=2;fontFamily=Times New Roman;fontSize=15;fillColor=#1ba1e2;strokeColor=#006EAF;fontColor=#ffffff;" parent="MH4xG3TaYEz_sSmX0UcA-63" vertex="1">
          <mxGeometry x="75" y="79.12" width="21.27" height="19.12" as="geometry" />
        </mxCell>
        <mxCell id="MH4xG3TaYEz_sSmX0UcA-64" value="" style="endArrow=classic;html=1;rounded=0;" parent="MH4xG3TaYEz_sSmX0UcA-96" edge="1">
          <mxGeometry width="50" height="50" relative="1" as="geometry">
            <mxPoint x="410" y="100" as="sourcePoint" />
            <mxPoint x="470" y="100" as="targetPoint" />
          </mxGeometry>
        </mxCell>
        <mxCell id="MH4xG3TaYEz_sSmX0UcA-65" value="Re-ranking Passages" style="text;html=1;align=center;verticalAlign=middle;resizable=0;points=[];autosize=1;strokeColor=none;fillColor=none;" parent="MH4xG3TaYEz_sSmX0UcA-96" vertex="1">
          <mxGeometry x="450" y="30" width="140" height="30" as="geometry" />
        </mxCell>
        <mxCell id="MH4xG3TaYEz_sSmX0UcA-66" value="" style="rounded=1;whiteSpace=wrap;html=1;strokeWidth=2;fontFamily=Times New Roman;fontSize=15;fillColor=#1ba1e2;strokeColor=#006EAF;fontColor=#ffffff;" parent="MH4xG3TaYEz_sSmX0UcA-96" vertex="1">
          <mxGeometry x="509.36" y="70" width="21.27" height="19.12" as="geometry" />
        </mxCell>
        <mxCell id="MH4xG3TaYEz_sSmX0UcA-67" value="" style="rounded=1;whiteSpace=wrap;html=1;strokeWidth=2;fontFamily=Times New Roman;fontSize=15;fillColor=#1ba1e2;strokeColor=#006EAF;fontColor=#ffffff;" parent="MH4xG3TaYEz_sSmX0UcA-96" vertex="1">
          <mxGeometry x="509.36" y="89.12" width="21.27" height="19.12" as="geometry" />
        </mxCell>
        <mxCell id="MH4xG3TaYEz_sSmX0UcA-68" value="" style="rounded=1;whiteSpace=wrap;html=1;strokeWidth=2;fontFamily=Times New Roman;fontSize=15;fillColor=#1ba1e2;strokeColor=#006EAF;fontColor=#ffffff;" parent="MH4xG3TaYEz_sSmX0UcA-96" vertex="1">
          <mxGeometry x="509.36" y="108.24000000000001" width="21.27" height="19.12" as="geometry" />
        </mxCell>
        <mxCell id="MH4xG3TaYEz_sSmX0UcA-69" value="" style="rounded=1;whiteSpace=wrap;html=1;strokeWidth=2;fontFamily=Times New Roman;fontSize=15;fillColor=#fad9d5;strokeColor=#ae4132;fontColor=#000000;" parent="MH4xG3TaYEz_sSmX0UcA-96" vertex="1">
          <mxGeometry x="509.36" y="127.36000000000001" width="21.27" height="19.12" as="geometry" />
        </mxCell>
        <mxCell id="MH4xG3TaYEz_sSmX0UcA-70" value="" style="endArrow=classic;html=1;rounded=0;" parent="MH4xG3TaYEz_sSmX0UcA-96" edge="1">
          <mxGeometry width="50" height="50" relative="1" as="geometry">
            <mxPoint x="240" y="264.58000000000004" as="sourcePoint" />
            <mxPoint x="300" y="264.58000000000004" as="targetPoint" />
          </mxGeometry>
        </mxCell>
        <mxCell id="MH4xG3TaYEz_sSmX0UcA-80" value="" style="group" parent="MH4xG3TaYEz_sSmX0UcA-96" vertex="1" connectable="0">
          <mxGeometry x="290" y="200" width="130" height="125" as="geometry" />
        </mxCell>
        <mxCell id="MH4xG3TaYEz_sSmX0UcA-81" value="" style="ellipse;whiteSpace=wrap;html=1;aspect=fixed;" parent="MH4xG3TaYEz_sSmX0UcA-80" vertex="1">
          <mxGeometry x="20" y="35" width="90" height="90" as="geometry" />
        </mxCell>
        <mxCell id="MH4xG3TaYEz_sSmX0UcA-82" value="Retrieved Passages" style="text;html=1;align=center;verticalAlign=middle;resizable=0;points=[];autosize=1;strokeColor=none;fillColor=none;" parent="MH4xG3TaYEz_sSmX0UcA-80" vertex="1">
          <mxGeometry width="130" height="30" as="geometry" />
        </mxCell>
        <mxCell id="MH4xG3TaYEz_sSmX0UcA-83" value="" style="rounded=1;whiteSpace=wrap;html=1;strokeWidth=2;fontFamily=Times New Roman;fontSize=15;fillColor=#fad9d5;strokeColor=#ae4132;fontColor=#000000;" parent="MH4xG3TaYEz_sSmX0UcA-80" vertex="1">
          <mxGeometry x="45" y="90" width="21.27" height="19.12" as="geometry" />
        </mxCell>
        <mxCell id="MH4xG3TaYEz_sSmX0UcA-84" value="" style="rounded=1;whiteSpace=wrap;html=1;strokeWidth=2;fontFamily=Times New Roman;fontSize=15;fillColor=#1ba1e2;strokeColor=#006EAF;fontColor=#ffffff;" parent="MH4xG3TaYEz_sSmX0UcA-80" vertex="1">
          <mxGeometry x="35" y="60" width="21.27" height="19.12" as="geometry" />
        </mxCell>
        <mxCell id="MH4xG3TaYEz_sSmX0UcA-85" value="" style="rounded=1;whiteSpace=wrap;html=1;strokeWidth=2;fontFamily=Times New Roman;fontSize=15;fillColor=#e51400;strokeColor=#B20000;fontColor=#ffffff;" parent="MH4xG3TaYEz_sSmX0UcA-80" vertex="1">
          <mxGeometry x="66.26999999999998" y="50" width="21.27" height="19.12" as="geometry" />
        </mxCell>
        <mxCell id="MH4xG3TaYEz_sSmX0UcA-86" value="" style="rounded=1;whiteSpace=wrap;html=1;strokeWidth=2;fontFamily=Times New Roman;fontSize=15;fillColor=#1ba1e2;strokeColor=#006EAF;fontColor=#ffffff;" parent="MH4xG3TaYEz_sSmX0UcA-80" vertex="1">
          <mxGeometry x="75" y="79.12" width="21.27" height="19.12" as="geometry" />
        </mxCell>
        <mxCell id="MH4xG3TaYEz_sSmX0UcA-87" value="" style="endArrow=classic;html=1;rounded=0;" parent="MH4xG3TaYEz_sSmX0UcA-96" edge="1">
          <mxGeometry width="50" height="50" relative="1" as="geometry">
            <mxPoint x="410" y="264.58000000000004" as="sourcePoint" />
            <mxPoint x="470" y="264.58000000000004" as="targetPoint" />
          </mxGeometry>
        </mxCell>
        <mxCell id="MH4xG3TaYEz_sSmX0UcA-88" value="" style="group" parent="MH4xG3TaYEz_sSmX0UcA-96" vertex="1" connectable="0">
          <mxGeometry x="460" y="200" width="160" height="125" as="geometry" />
        </mxCell>
        <mxCell id="MH4xG3TaYEz_sSmX0UcA-89" value="" style="ellipse;whiteSpace=wrap;html=1;aspect=fixed;" parent="MH4xG3TaYEz_sSmX0UcA-88" vertex="1">
          <mxGeometry x="20" y="35" width="90" height="90" as="geometry" />
        </mxCell>
        <mxCell id="MH4xG3TaYEz_sSmX0UcA-90" value="Removing Damaging Passages" style="text;html=1;align=center;verticalAlign=middle;resizable=0;points=[];autosize=1;strokeColor=none;fillColor=none;" parent="MH4xG3TaYEz_sSmX0UcA-88" vertex="1">
          <mxGeometry x="-30" width="190" height="30" as="geometry" />
        </mxCell>
        <mxCell id="MH4xG3TaYEz_sSmX0UcA-91" value="" style="rounded=1;whiteSpace=wrap;html=1;strokeWidth=2;fontFamily=Times New Roman;fontSize=15;fillColor=#fad9d5;strokeColor=#ae4132;fontColor=#000000;" parent="MH4xG3TaYEz_sSmX0UcA-88" vertex="1">
          <mxGeometry x="45" y="90" width="21.27" height="19.12" as="geometry" />
        </mxCell>
        <mxCell id="MH4xG3TaYEz_sSmX0UcA-92" value="" style="rounded=1;whiteSpace=wrap;html=1;strokeWidth=2;fontFamily=Times New Roman;fontSize=15;fillColor=#1ba1e2;strokeColor=#006EAF;fontColor=#ffffff;" parent="MH4xG3TaYEz_sSmX0UcA-88" vertex="1">
          <mxGeometry x="35" y="60" width="21.27" height="19.12" as="geometry" />
        </mxCell>
        <mxCell id="MH4xG3TaYEz_sSmX0UcA-94" value="" style="rounded=1;whiteSpace=wrap;html=1;strokeWidth=2;fontFamily=Times New Roman;fontSize=15;fillColor=#1ba1e2;strokeColor=#006EAF;fontColor=#ffffff;" parent="MH4xG3TaYEz_sSmX0UcA-88" vertex="1">
          <mxGeometry x="75" y="79.12" width="21.27" height="19.12" as="geometry" />
        </mxCell>
        <mxCell id="PrsN6e0wi4Krew4d9L8A-3" value="" style="curved=1;endArrow=classic;html=1;rounded=0;entryX=1;entryY=0.25;entryDx=0;entryDy=0;strokeWidth=2;" edge="1" parent="MH4xG3TaYEz_sSmX0UcA-96" target="MH4xG3TaYEz_sSmX0UcA-40">
          <mxGeometry width="50" height="50" relative="1" as="geometry">
            <mxPoint x="240" y="170" as="sourcePoint" />
            <mxPoint x="200" y="190" as="targetPoint" />
            <Array as="points">
              <mxPoint x="220" y="170" />
              <mxPoint x="130" y="210" />
            </Array>
          </mxGeometry>
        </mxCell>
        <mxCell id="PrsN6e0wi4Krew4d9L8A-6" value="&lt;font color=&quot;#cc0000&quot;&gt;Damaging Passage&lt;/font&gt;" style="text;html=1;align=center;verticalAlign=middle;resizable=0;points=[];autosize=1;strokeColor=none;fillColor=none;" vertex="1" parent="MH4xG3TaYEz_sSmX0UcA-96">
          <mxGeometry x="230" y="155" width="130" height="30" as="geometry" />
        </mxCell>
      </root>
    </mxGraphModel>
  </diagram>
</mxfile>
